<?xml version="1.0" encoding="UTF-8"?>
<svg id="uuid-e6b59bda-4f4c-403b-89b7-8bb305b2438b" data-name="New Logo" xmlns="http://www.w3.org/2000/svg" width="86.141mm" height="26.948mm" xmlns:xlink="http://www.w3.org/1999/xlink" viewBox="0 0 244.18 76.388">
  <defs>
    <linearGradient id="uuid-bec4cad5-2b33-49b6-a50a-9328b5ce45eb" x1="71.462" y1="62.909" x2="78.121" y2="15.528" gradientUnits="userSpaceOnUse">
      <stop offset="0" stop-color="#1d1b1b"/>
      <stop offset=".246" stop-color="#060607"/>
      <stop offset=".635" stop-color="#58595b"/>
      <stop offset="1" stop-color="#1d1b1b"/>
    </linearGradient>
    <linearGradient id="uuid-a19316ec-602b-4147-8b14-e81a2cee7bc6" x1="117.889" y1="79.249" x2="126.927" y2="14.939" xlink:href="#uuid-bec4cad5-2b33-49b6-a50a-9328b5ce45eb"/>
    <linearGradient id="uuid-6d7695a3-c7f3-47b3-8d2d-2d1e97dd68f2" x1="158.644" y1="62.837" x2="167.601" y2="-.895" xlink:href="#uuid-bec4cad5-2b33-49b6-a50a-9328b5ce45eb"/>
    <linearGradient id="uuid-089159eb-65c2-4bd9-b4f7-a05d2ebbe167" x1="202.649" y1="65.133" x2="212.302" y2="-3.554" xlink:href="#uuid-bec4cad5-2b33-49b6-a50a-9328b5ce45eb"/>
  </defs>
  <g>
    <path d="M120.221,76.266c-.869,0-1.661-.212-2.376-.636-.715-.425-1.284-.994-1.708-1.708-.424-.715-.636-1.507-.636-2.376s.212-1.661,.636-2.375c.424-.715,.993-1.284,1.708-1.708s1.507-.637,2.376-.637c1.304,0,2.52,.575,3.647,1.724l-1.354,1.185c-.724-.739-1.488-1.109-2.294-1.109s-1.495,.285-2.065,.856c-.57,.57-.855,1.259-.855,2.064s.285,1.495,.855,2.065,1.257,.855,2.059,.855c.811,0,1.577-.372,2.301-1.115l1.354,1.185c-1.133,1.153-2.349,1.729-3.647,1.729Z"/>
    <path d="M132.609,66.827c.868,0,1.66,.213,2.375,.637s1.284,.993,1.708,1.708c.424,.714,.636,1.506,.636,2.375s-.212,1.661-.636,2.376c-.424,.714-.993,1.283-1.708,1.708-.715,.424-1.507,.636-2.375,.636s-1.661-.212-2.376-.636c-.715-.425-1.284-.994-1.708-1.708-.424-.715-.636-1.507-.636-2.376s.212-1.661,.636-2.375c.424-.715,.993-1.284,1.708-1.708s1.507-.637,2.376-.637Zm0,1.799c-.807,0-1.495,.285-2.065,.856-.57,.57-.855,1.259-.855,2.064s.285,1.495,.855,2.065,1.259,.855,2.065,.855,1.494-.285,2.064-.855,.855-1.259,.855-2.065-.285-1.494-.855-2.064c-.57-.571-1.259-.856-2.064-.856Z"/>
    <path d="M144.044,67.053h1.003l2.362,4.731,2.369-4.731h.997l2.701,8.987h-1.881l-1.698-5.659-2.488,4.97-2.488-4.97-1.698,5.659h-1.874l2.695-8.987Z"/>
    <path d="M160.506,67.053h1.003l2.362,4.731,2.369-4.731h.997l2.701,8.987h-1.881l-1.698-5.659-2.488,4.97-2.488-4.97-1.698,5.659h-1.874l2.695-8.987Z"/>
    <path d="M174.587,67.053h8.085v1.799h-8.085v-1.799Zm1.799,5.39v1.799h6.286v1.799h-8.085v-5.391h7.188v1.793h-5.39Z"/>
    <path d="M189.746,68.852v7.188h-1.799v-8.987h4.944c.869,0,1.611,.307,2.226,.921s.921,1.355,.921,2.225c0,.689-.196,1.302-.589,1.837s-.904,.913-1.535,1.135l2.87,2.87h-2.545l-3.146-3.146v-1.348h1.799c.372,0,.689-.132,.953-.395,.264-.264,.395-.581,.395-.953s-.131-.689-.395-.952c-.264-.264-.581-.395-.953-.395h-3.146Z"/>
    <path d="M205.091,76.266c-.869,0-1.661-.212-2.376-.636-.715-.425-1.284-.994-1.708-1.708-.424-.715-.636-1.507-.636-2.376s.212-1.661,.636-2.375c.424-.715,.993-1.284,1.708-1.708s1.507-.637,2.376-.637c1.304,0,2.52,.575,3.647,1.724l-1.354,1.185c-.724-.739-1.488-1.109-2.294-1.109s-1.495,.285-2.065,.856c-.57,.57-.855,1.259-.855,2.064s.285,1.495,.855,2.065,1.257,.855,2.059,.855c.811,0,1.577-.372,2.301-1.115l1.354,1.185c-1.133,1.153-2.349,1.729-3.647,1.729Z"/>
    <path d="M213.387,67.053h8.085v1.799h-8.085v-1.799Zm1.799,5.39v1.799h6.286v1.799h-8.085v-5.391h7.188v1.793h-5.39Z"/>
  </g>
  <path d="M6.193,51.031H1.064c-.528,0-.921-.487-.811-1.003l1.548-7.234c.082-.382,.42-.656,.811-.656h5.83c.393,0,.732-.276,.812-.661l.932-4.503c.107-.515-.286-.997-.812-.997H4.321c-.526,0-.919-.484-.812-.999l1.444-6.911c.08-.384,.419-.66,.812-.66h5.745c.392,0,.731-.275,.811-.658l1.944-9.239c.081-.384,.419-.658,.811-.658h9.402c.527,0,.92,.485,.811,1l-1.799,8.556c-.108,.515,.285,1,.811,1h7.261c.392,0,.731-.275,.811-.659l1.943-9.239c.081-.384,.419-.659,.811-.659h9.403c.527,0,.92,.485,.811,1l-1.801,8.556c-.108,.515,.285,1,.811,1h4.465c.526,0,.919,.484,.812,.999l-1.444,6.911c-.08,.384-.419,.66-.812,.66h-5.158c-.393,0-.732,.276-.812,.661l-.932,4.503c-.107,.515,.286,.997,.812,.997h4.38c.528,0,.921,.487,.811,1.003l-1.548,7.234c-.082,.382-.42,.656-.811,.656h-5.081c-.392,0-.731,.275-.812,.659l-1.923,9.172c-.081,.384-.419,.659-.812,.659h-9.402c-.526,0-.92-.484-.812-.999l1.781-8.491c.108-.515-.285-.999-.812-.999h-7.261c-.392,0-.731,.275-.812,.659l-1.925,9.172c-.081,.384-.419,.659-.812,.659H6.035c-.526,0-.92-.484-.812-1l1.782-8.491c.108-.515-.285-1-.812-1Zm15.159-14.393l-.932,4.503c-.107,.515,.286,.997,.812,.997h7.263c.393,0,.732-.276,.812-.661l.931-4.503c.106-.515-.287-.997-.812-.997h-7.262c-.393,0-.732,.276-.812,.661Z" fill="#da1c5c"/>
  <path d="M66.549,46.973c.436,0,.826,.32,.863,.755,.126,1.453,.628,2.571,1.509,3.353,.969,.742,2.451,1.113,4.45,1.113,1.139,0,2.053-.157,2.738-.471,.684-.313,1.198-.685,1.54-1.113,.341-.428,.57-.855,.684-1.283,.114-.429,.171-.784,.171-1.07,0-.799-.256-1.426-.77-1.883-.514-.455-1.241-.841-2.183-1.156-.942-.312-2.053-.57-3.337-.77-1.283-.199-2.724-.44-4.322-.727-.741-.113-1.783-.327-3.123-.642-1.341-.312-2.683-.869-4.022-1.669-1.341-.798-2.496-1.925-3.465-3.38-.971-1.454-1.455-3.379-1.455-5.776,0-3.194,.642-5.832,1.926-7.915,1.283-2.082,2.981-3.751,5.091-5.006s4.479-2.125,7.103-2.61,5.276-.727,7.958-.727c2.339,0,4.734,.171,7.188,.513,2.453,.343,4.663,1.014,6.631,2.011,1.969,.999,3.538,2.426,4.708,4.279,1.062,1.685,1.547,3.83,1.456,6.431-.016,.443-.395,.8-.838,.8h-13.492c-.441,0-.817-.35-.823-.791-.017-1.242-.43-2.148-1.237-2.717-.571-.457-1.198-.756-1.882-.898-.685-.142-1.369-.214-2.054-.214-1.142,0-2.224,.272-3.252,.813-1.026,.543-1.539,1.469-1.539,2.781,0,1.198,.355,2.025,1.07,2.481,.712,.458,1.638,.742,2.78,.857,3.137,.457,5.89,.983,8.258,1.582,2.366,.599,4.336,1.412,5.905,2.439,1.568,1.028,2.738,2.326,3.508,3.894,.77,1.57,1.155,3.524,1.155,5.862,0,2.567-.528,4.878-1.584,6.931-1.056,2.054-2.567,3.78-4.535,5.177-1.968,1.398-4.336,2.482-7.102,3.252-2.769,.77-5.862,1.155-9.286,1.155-2.396,0-4.864-.185-7.401-.556-2.539-.372-4.836-1.125-6.889-2.267-2.054-1.141-3.737-2.724-5.049-4.749-1.202-1.855-1.806-4.274-1.81-7.257,0-.456,.381-.83,.837-.83h13.92Z" fill="url(#uuid-bec4cad5-2b33-49b6-a50a-9328b5ce45eb)"/>
  <path d="M106.077,17.107h14.742c.524,0,.917,.481,.813,.995l-.825,4.054h.171c1.483-2.053,3.18-3.593,5.092-4.62,1.911-1.028,4.178-1.54,6.804-1.54,3.137,0,5.733,.585,7.786,1.754,2.056,1.17,3.708,2.639,4.964,4.407,1.254,1.769,2.139,3.738,2.652,5.905,.515,2.169,.772,4.222,.772,6.16,0,3.309-.429,6.648-1.284,10.013-.855,3.366-2.153,6.418-3.894,9.156-1.741,2.738-3.978,4.963-6.716,6.674-2.738,1.712-5.99,2.567-9.757,2.567-1.198,0-2.396-.057-3.593-.17-1.198-.116-2.368-.4-3.508-.857-1.142-.455-2.24-1.113-3.295-1.968-.647-.524-1.267-1.166-1.86-1.925-.442-.567-1.336-.38-1.48,.324l-3.499,17.197c-.079,.386-.418,.664-.813,.664h-15.245c-.526,0-.92-.484-.812-.999l11.975-57.132c.08-.384,.419-.659,.812-.659Zm17.127,33.203c1.712,0,3.137-.471,4.279-1.412,1.141-.94,2.053-2.11,2.738-3.508,.684-1.397,1.169-2.922,1.455-4.578,.284-1.653,.426-3.194,.426-4.62,0-1.084-.084-2.11-.256-3.081-.17-.969-.485-1.811-.942-2.525-.457-.712-1.084-1.269-1.882-1.669-.799-.398-1.827-.599-3.081-.599-1.883,0-3.41,.586-4.578,1.755s-2.068,2.553-2.696,4.149c-.628,1.599-1.056,3.224-1.283,4.878-.228,1.656-.343,2.968-.343,3.937,0,.4,.056,.999,.171,1.797,.114,.799,.384,1.613,.813,2.439,.428,.827,1.054,1.54,1.882,2.139s1.926,.898,3.295,.898Z" fill="url(#uuid-a19316ec-602b-4147-8b14-e81a2cee7bc6)"/>
  <path d="M158.235,17.107h15.249c.526,0,.919,.483,.812,.998l-8.898,42.755c-.08,.385-.419,.66-.812,.66h-15.249c-.526,0-.919-.483-.812-.998l8.898-42.755c.08-.385,.419-.66,.812-.66Zm16.536-4.791h-15.249c-.526,0-.919-.484-.812-.999l2.135-10.236c.08-.384,.419-.66,.812-.66h15.251c.526,0,.919,.484,.812,.999l-2.136,10.236c-.08,.384-.419,.66-.812,.66Z" fill="url(#uuid-6d7695a3-c7f3-47b3-8d2d-2d1e97dd68f2)"/>
  <path d="M243.11,.777c-1.166-.085-2.33-.161-3.494-.228-1.485-.086-2.967-.128-4.45-.128-3.309,0-6.119,.256-8.429,.77-2.311,.513-4.251,1.398-5.819,2.652-1.57,1.256-2.839,2.967-3.808,5.135-.971,2.169-1.797,4.878-2.482,8.128l-.049,.238h-12.541l.049-.238c.457-1.996,1.084-3.379,1.883-4.149,.798-.77,2.025-1.156,3.68-1.156,1.506,0,2.775,.055,3.806,.164,.419,.044,.801-.245,.889-.657l2.037-9.524c.106-.494-.252-.971-.756-1.008-1.165-.085-2.33-.161-3.494-.228-1.485-.086-2.967-.128-4.45-.128-3.309,0-6.119,.256-8.429,.77-2.311,.513-4.251,1.398-5.819,2.652-1.57,1.256-2.839,2.967-3.808,5.135-.971,2.169-1.797,4.878-2.482,8.128l-.049,.238h-5.382c-.387,0-.722,.267-.808,.644l-2.302,10.029c-.119,.519,.275,1.015,.808,1.015h5.286l-1.808,8.755h-5.098c-.387,0-.722,.267-.808,.644l-2.302,10.029c-.119,.519,.275,1.015,.808,1.015h4.986l-2.282,11.049c-.106,.515,.287,.997,.812,.997h15.25c.393,0,.733-.276,.812-.662l2.351-11.384h12.541l-2.282,11.049c-.106,.515,.287,.997,.812,.997h15.25c.393,0,.733-.276,.812-.662l2.351-11.384h8.692c.389,0,.725-.27,.809-.649l2.229-10.029c.115-.518-.279-1.009-.809-1.009h-8.507l1.808-8.755h8.391c.389,0,.725-.27,.809-.649l2.229-10.029c.115-.518-.279-1.009-.809-1.009h-8.223l.049-.238c.457-1.996,1.084-3.379,1.883-4.149,.798-.77,2.025-1.156,3.68-1.156,1.506,0,2.775,.055,3.806,.164,.419,.044,.801-.245,.889-.657l2.037-9.524c.106-.494-.252-.971-.756-1.008Zm-32.736,37.01h-12.541l1.808-8.755h12.541l-1.808,8.755Z" fill="url(#uuid-089159eb-65c2-4bd9-b4f7-a05d2ebbe167)"/>
</svg>